<?xml version="1.0" encoding="UTF-8" standalone="no"?><!DOCTYPE svg PUBLIC "-//W3C//DTD SVG 1.1//EN" "http://www.w3.org/Graphics/SVG/1.1/DTD/svg11.dtd"><svg width="100%" height="100%" viewBox="0 0 747 747" version="1.1" xmlns="http://www.w3.org/2000/svg" xmlns:xlink="http://www.w3.org/1999/xlink" xml:space="preserve" xmlns:serif="http://www.serif.com/" style="fill-rule:evenodd;clip-rule:evenodd;stroke-linejoin:round;stroke-miterlimit:1.41421;"><path d="M0,373.434c0,-206.104 167.33,-373.434 373.434,-373.434c206.104,0 373.434,167.33 373.434,373.434c0,206.104 -167.33,373.434 -373.434,373.434c-206.104,0 -373.434,-167.33 -373.434,-373.434Zm599.585,-188.64c-3.89,67.072 -27.357,122.02 -70.403,164.842c-9.595,9.545 -22.431,18.187 -38.508,25.926c-14.521,7.223 -26.579,11.222 -36.174,11.996c61.976,37.921 103.984,71.715 126.026,101.381c9.594,13.157 14.391,25.152 14.391,35.987c0,15.22 -9.853,35.471 -29.561,60.752c2.593,4.385 3.889,8.642 3.889,12.769c0,31.73 -58.993,47.595 -176.98,47.595c-24.635,0 -51.279,-0.838 -79.933,-2.515c-28.654,-1.677 -43.888,-8.061 -45.703,-19.154c-2.075,-10.319 0,-24.249 6.223,-41.791c2.852,-8.513 8.039,-12.769 15.559,-12.769c-3.112,0 5.445,1.289 25.672,3.869c5.964,0.774 12.122,6.256 18.476,16.446c6.353,10.189 17.309,16.058 32.867,17.606c9.854,1.032 21.134,1.548 33.841,1.548c55.492,0 98.279,-6.836 128.359,-20.509c15.04,-6.707 22.56,-16.768 22.56,-30.182c0,-15.736 -8.817,-32.891 -26.45,-51.465c-11.409,-12.124 -34.099,-30.44 -68.069,-54.947c-37.082,-26.571 -62.754,-42.049 -77.016,-46.434c-25.931,0 -38.897,-4.773 -38.897,-14.318c0,-3.353 11.41,-13.93 34.23,-31.73c5.445,-4.127 10.761,-6.191 15.947,-6.191c5.187,0 11.28,2.064 18.282,6.191c6.223,3.354 12.317,6.836 18.281,10.448c25.413,-1.29 49.399,-15.349 71.959,-42.178c12.188,-14.704 23.987,-35.858 35.396,-63.46c12.966,-31.214 19.449,-57.785 19.449,-79.713c0,-14.704 -4.408,-23.991 -13.225,-27.86c-5.446,-2.58 -15.948,-3.354 -31.506,-2.322c-10.373,0.774 -27.617,3.999 -51.733,9.674c-27.487,6.449 -47.973,12.769 -61.457,18.961c-22.301,79.97 -51.214,166.905 -86.74,260.806c-32.155,85.388 -54.196,137.11 -66.125,155.168c-7.779,11.609 -13.484,18.574 -17.114,20.895c-4.668,3.096 -16.207,6.45 -34.618,10.061c-12.447,2.322 -18.671,1.419 -18.671,-2.708c0,-2.064 0.649,-4.902 1.945,-8.513c14.781,-41.275 22.171,-71.716 22.171,-91.321c0,-12.899 1.167,-20.251 3.501,-22.057c1.037,-0.773 11.928,-4.772 32.673,-11.995c7.002,-2.322 11.41,0.645 13.225,8.9c23.079,-46.693 45.509,-102.543 67.292,-167.551c18.67,-55.721 31.117,-99.447 37.341,-131.177c-69.237,29.409 -116.561,60.236 -141.974,92.482c-6.482,8.513 -9.724,17.929 -9.724,28.247c0,6.45 1.945,17.413 5.835,32.891c0.778,3.612 1.167,6.579 1.167,8.9c0,4.902 -1.686,7.352 -5.057,7.352c-4.408,0 -9.206,-2.966 -14.392,-8.899c-25.931,-30.441 -38.897,-53.4 -38.897,-68.878c0,-5.675 4.409,-13.93 13.225,-24.765c17.115,-20.38 46.676,-43.726 88.685,-70.039c41.231,-25.796 78.831,-44.757 112.801,-56.882c2.593,-17.284 3.5,-28.118 2.722,-32.504c-1.555,-7.223 0.649,-10.834 6.613,-10.834c2.852,0 6.223,1.805 10.113,5.417c11.41,11.351 16.337,19.477 14.781,24.378c56.789,-16.252 95.816,-24.12 117.079,-23.604c15.559,0.516 28.006,4.901 37.341,13.156c5.964,5.676 13.484,16.897 22.56,33.665c8.039,-0.516 14.392,1.419 19.06,5.805c5.445,5.417 7.909,13.801 7.39,25.151Z" style="fill:#045273;"/></svg>